<svg xmlns="http://www.w3.org/2000/svg" width="600px" height="600px" viewBox="0 0 600 600">
<defs>
  <clipPath id="glassMask">
    <rect x="0" y="0" width="600" height="600" />
  </clipPath> 

<!-- BLOB GRADIENTS -->
  <radialGradient id="blob0_2_" cx="292" cy="171.5" r="56.5354" gradientUnits="userSpaceOnUse">
    <stop  offset="1.020408e-002" style="stop-color:#64BEFF"/>
    <stop  offset="0.1922" style="stop-color:#64BEFF"/>
    <stop  offset="0.3992" style="stop-color:#64BEFF"/>
    <stop  offset="0.6186" style="stop-color:#64BEFF"/>
    <stop  offset="0.8449" style="stop-color:#4655E6"/>
    <stop  offset="1" style="stop-color:#4655E6"/>
  </radialGradient>
  <radialGradient id="blob1_2_" cx="297" cy="167.5" r="37.2156" gradientUnits="userSpaceOnUse">
    <stop  offset="1.020408e-002" style="stop-color:#03E0A6"/>
    <stop  offset="0.1922" style="stop-color:#03E0A6"/>
    <stop  offset="0.3992" style="stop-color:#00FFBE"/>
    <stop  offset="0.6186" style="stop-color:#00FFBE"/>
    <stop  offset="0.8449" style="stop-color:#00FFBE"/>
    <stop  offset="1" style="stop-color:#00FFBE"/>
  </radialGradient>
  <radialGradient id="blob2_2_" cx="294" cy="157" r="23" gradientUnits="userSpaceOnUse">
    <stop  offset="1.020408e-002" style="stop-color:#FFBED7"/>
    <stop  offset="0.1922" style="stop-color:#FFBED7"/>
    <stop  offset="0.3992" style="stop-color:#FFBED7"/>
    <stop  offset="0.6186" style="stop-color:#FFBED7"/>
    <stop  offset="0.8449" style="stop-color:#FF7D91"/>
    <stop  offset="1" style="stop-color:#FF7D91"/>
  </radialGradient>
  <radialGradient id="botBlob_2_" cx="284.5" cy="421.5" r="53.521" gradientTransform="matrix(-2.802637e-002 -0.9996 5.9976 -0.1682 -2235.533 776.7669)" gradientUnits="userSpaceOnUse">
    <stop  offset="1.020408e-002" style="stop-color:#FAAF64"/>
    <stop  offset="0.1922" style="stop-color:#FAAF64"/>
    <stop  offset="0.3992" style="stop-color:#FAAF64"/>
    <stop  offset="0.6186" style="stop-color:#FAAF64"/>
    <stop  offset="0.8449" style="stop-color:#FA8C64"/>
    <stop  offset="1" style="stop-color:#FA8C64"/>
  </radialGradient>
  <radialGradient id="blob3_2_" cx="291.9382" cy="167.4587" r="41.0767" gradientUnits="userSpaceOnUse">
    <stop  offset="1.020408e-002" style="stop-color:#FFB4A0"/>
    <stop  offset="0.1922" style="stop-color:#FFB4A0"/>
    <stop  offset="0.3992" style="stop-color:#FFB4A0"/>
    <stop  offset="0.6186" style="stop-color:#FFB4A0"/>
    <stop  offset="0.8449" style="stop-color:#FA8C64"/>
    <stop  offset="1" style="stop-color:#FA8C64"/>
  </radialGradient>
  <radialGradient id="blob4_2_" cx="306.5" cy="155" r="14.109" gradientUnits="userSpaceOnUse">
    <stop  offset="1.020408e-002" style="stop-color:#FF9C12"/>
    <stop  offset="0.1922" style="stop-color:#FA9712"/>
    <stop  offset="0.3992" style="stop-color:#ED8A14"/>
    <stop  offset="0.6186" style="stop-color:#D67316"/>
    <stop  offset="0.8449" style="stop-color:#B65419"/>
    <stop  offset="1" style="stop-color:#9C3A1C"/>
  </radialGradient>
  <!-- END BLOB GRADIENTS-->

  <filter id="goo">
      <feGaussianBlur in="SourceGraphic" stdDeviation="8" result="blur" />
      <feColorMatrix in="blur" mode="matrix" values="1 0 0 0 0  0 1 0 0 0  0 0 1 0 0  0 0 0 21 -9" result="cm" />
    </filter>
</defs>

  <g clip-path="url(#glassMask)" filter="url(#goo)">
<path id="blob0" fill="url(#blob0_2_)" d="M326.2,149.5c-5,19.2-21.4,29.2-37.8,26.6c-16.5-2.9-33.4-12.9-37.1-26.6
    c-3.8-13.6,12.5-32.1,37.8-34.9C314.4,111.8,331.3,130.4,326.2,149.5z"/>

<path id="blob1" fill="url(#blob1_2_)" d="M320.5,146.4c-4.4,10.1-16.4,20.2-26.8,25.3c-10.4,5.2-22.4-2.9-26.8-15.2
    c-4.4-11.6,7.6-20.4,26.8-25.3C312.9,126.3,324.9,135.6,320.5,146.4z"/>

<path id="blob2" fill="url(#blob2_2_)" d="M278,147.7c2.7-7.1,9.4-15.7,15.4-16.4c5.9-0.4,12.6,8.5,15.4,16.9
    c2.7,8.4-4.2,14.9-15.4,14.2C282.2,161.5,275.3,154.8,278,147.7z"/>

<path id="botBlob" fill="url(#botBlob_2_)" d="M354,381.2c6.8,3.4,5.4,7.4-5.6,10.4c-10.7,3.1-31.1,5.1-54.4,8.4
    c-23.3,3.3-43.7,0.8-54.4-2.4c-11-3.4-12.4-7.6-5.6-13.8c6.8-7,18.9-14.6,29.6-17.4c11-3.3,20.6-1.8,30.4-1.4
    c9.8,0.4,19.4,5.1,30.4,8.3C335.1,376.8,347.2,378.6,354,381.2z"/>

<path id="blob3" fill="url(#blob3_2_)" d="M312.7,147.3c-2.1,16.4-15.3,27.2-23.2,25.3c-8.1-1.8-12.6-13-14.8-24.9
    c-1.9-11.8,2.7-22.7,14.8-25.3C301.5,119.6,314.7,130.8,312.7,147.3z"/>

<path id="blob4" fill="#00FFBE" d="M317.8,147.4c-1,8.2-9.8,10.3-13.8,9.3c-4-0.9-6.5-3-7.6-8.9c-1-5.9,2.3-8.5,8.4-9.8
    C310.8,136.6,318.8,139.1,317.8,147.4z"/>  
  </g>
</svg>