<svg width="60" height="32" viewBox="0 0 60 32" fill="none" xmlns="http://www.w3.org/2000/svg">
<path d="M11.24 23.2C9.13333 23.2 7.26667 22.7333 5.64 21.8C4.01333 20.84 2.73333 19.52 1.8 17.84C0.893334 16.16 0.44 14.24 0.44 12.08C0.44 9.89333 0.92 7.96 1.88 6.28C2.84 4.6 4.16 3.29333 5.84 2.36C7.52 1.4 9.42667 0.919998 11.56 0.919998C13.72 0.919998 15.6267 1.4 17.28 2.36C18.96 3.29333 20.2667 4.6 21.2 6.28C22.16 7.96 22.6533 9.89333 22.68 12.08L20.88 13.04C20.88 15.0133 20.4667 16.7733 19.64 18.32C18.8133 19.84 17.6667 21.04 16.2 21.92C14.76 22.7733 13.1067 23.2 11.24 23.2ZM11.64 31.64C9.53333 31.64 7.68 31.24 6.08 30.44C4.48 29.6667 3.16 28.6 2.12 27.24C1.82667 26.92 1.69333 26.5733 1.72 26.2C1.77333 25.8267 1.97333 25.52 2.32 25.28C2.66667 25.04 3.05333 24.96 3.48 25.04C3.90667 25.12 4.24 25.32 4.48 25.64C5.25333 26.6 6.24 27.3733 7.44 27.96C8.66667 28.5467 10.08 28.84 11.68 28.84C13.1733 28.84 14.52 28.48 15.72 27.76C16.92 27.04 17.8667 26.0267 18.56 24.72C19.28 23.4133 19.64 21.88 19.64 20.12V14.04L20.8 11.72L22.68 12.08V20.24C22.68 22.4 22.2 24.3333 21.24 26.04C20.28 27.7733 18.9733 29.1333 17.32 30.12C15.6667 31.1333 13.7733 31.64 11.64 31.64ZM11.56 20.4C13.1333 20.4 14.52 20.0533 15.72 19.36C16.9467 18.64 17.9067 17.6533 18.6 16.4C19.2933 15.1467 19.64 13.7067 19.64 12.08C19.64 10.4533 19.2933 9.01333 18.6 7.76C17.9067 6.48 16.9467 5.49333 15.72 4.8C14.52 4.08 13.1333 3.72 11.56 3.72C9.98667 3.72 8.58667 4.08 7.36 4.8C6.13333 5.49333 5.17333 6.48 4.48 7.76C3.78667 9.01333 3.44 10.4533 3.44 12.08C3.44 13.7067 3.78667 15.1467 4.48 16.4C5.17333 17.6533 6.13333 18.64 7.36 19.36C8.58667 20.0533 9.98667 20.4 11.56 20.4ZM58.2303 23C57.777 23 57.4036 22.8667 57.1103 22.6C56.817 22.3067 56.6703 21.9333 56.6703 21.48V9.96C56.6703 8.06667 56.177 6.57333 55.1903 5.48C54.2036 4.36 52.937 3.8 51.3903 3.8C49.737 3.8 48.377 4.36 47.3103 5.48C46.2703 6.57333 45.7636 8.04 45.7903 9.88H43.0303C43.057 8.09333 43.4436 6.52 44.1903 5.16C44.937 3.8 45.9636 2.74667 47.2703 2C48.577 1.25333 50.057 0.879999 51.7103 0.879999C53.2836 0.879999 54.6703 1.25333 55.8703 2C57.097 2.74667 58.0436 3.8 58.7103 5.16C59.4036 6.52 59.7503 8.12 59.7503 9.96V21.48C59.7503 21.9333 59.6036 22.3067 59.3103 22.6C59.0436 22.8667 58.6836 23 58.2303 23ZM30.2303 23C29.7503 23 29.3636 22.8667 29.0703 22.6C28.8036 22.3067 28.6703 21.9333 28.6703 21.48V2.68C28.6703 2.22667 28.8036 1.85333 29.0703 1.56C29.3636 1.26667 29.7503 1.12 30.2303 1.12C30.6836 1.12 31.0436 1.26667 31.3103 1.56C31.6036 1.85333 31.7503 2.22667 31.7503 2.68V21.48C31.7503 21.9333 31.6036 22.3067 31.3103 22.6C31.0436 22.8667 30.6836 23 30.2303 23ZM44.2703 23C43.817 23 43.4436 22.8667 43.1503 22.6C42.857 22.3067 42.7103 21.9333 42.7103 21.48V9.96C42.7103 8.06667 42.217 6.57333 41.2303 5.48C40.2436 4.36 38.977 3.8 37.4303 3.8C35.777 3.8 34.417 4.34667 33.3503 5.44C32.2836 6.50667 31.7503 7.90667 31.7503 9.64H29.5503C29.6036 7.93333 29.977 6.42667 30.6703 5.12C31.3903 3.78667 32.3636 2.74667 33.5903 2C34.817 1.25333 36.2036 0.879999 37.7503 0.879999C39.3236 0.879999 40.7103 1.25333 41.9103 2C43.137 2.74667 44.0836 3.8 44.7503 5.16C45.4436 6.52 45.7903 8.12 45.7903 9.96V21.48C45.7903 21.9333 45.6436 22.3067 45.3503 22.6C45.0836 22.8667 44.7236 23 44.2703 23Z" fill="white"/>
</svg>
