<svg width="49" height="25" viewBox="0 0 49 25" fill="none" xmlns="http://www.w3.org/2000/svg">
<path d="M9.592 18.16C7.90667 18.16 6.41333 17.7867 5.112 17.04C3.81067 16.272 2.78667 15.216 2.04 13.872C1.31467 12.528 0.952 10.992 0.952 9.264C0.952 7.51467 1.336 5.968 2.104 4.624C2.872 3.28 3.928 2.23467 5.272 1.488C6.616 0.719999 8.14133 0.335999 9.848 0.335999C11.576 0.335999 13.1013 0.719999 14.424 1.488C15.768 2.23467 16.8133 3.28 17.56 4.624C18.328 5.968 18.7227 7.51467 18.744 9.264L17.304 10.032C17.304 11.6107 16.9733 13.0187 16.312 14.256C15.6507 15.472 14.7333 16.432 13.56 17.136C12.408 17.8187 11.0853 18.16 9.592 18.16ZM9.912 24.912C8.22667 24.912 6.744 24.592 5.464 23.952C4.184 23.3333 3.128 22.48 2.296 21.392C2.06133 21.136 1.95467 20.8587 1.976 20.56C2.01867 20.2613 2.17867 20.016 2.456 19.824C2.73333 19.632 3.04267 19.568 3.384 19.632C3.72533 19.696 3.992 19.856 4.184 20.112C4.80267 20.88 5.592 21.4987 6.552 21.968C7.53333 22.4373 8.664 22.672 9.944 22.672C11.1387 22.672 12.216 22.384 13.176 21.808C14.136 21.232 14.8933 20.4213 15.448 19.376C16.024 18.3307 16.312 17.104 16.312 15.696V10.832L17.24 8.976L18.744 9.264V15.792C18.744 17.52 18.36 19.0667 17.592 20.432C16.824 21.8187 15.7787 22.9067 14.456 23.696C13.1333 24.5067 11.6187 24.912 9.912 24.912ZM9.848 15.92C11.1067 15.92 12.216 15.6427 13.176 15.088C14.1573 14.512 14.9253 13.7227 15.48 12.72C16.0347 11.7173 16.312 10.5653 16.312 9.264C16.312 7.96267 16.0347 6.81067 15.48 5.808C14.9253 4.784 14.1573 3.99467 13.176 3.44C12.216 2.864 11.1067 2.576 9.848 2.576C8.58933 2.576 7.46933 2.864 6.488 3.44C5.50667 3.99467 4.73867 4.784 4.184 5.808C3.62933 6.81067 3.352 7.96267 3.352 9.264C3.352 10.5653 3.62933 11.7173 4.184 12.72C4.73867 13.7227 5.50667 14.512 6.488 15.088C7.46933 15.6427 8.58933 15.92 9.848 15.92ZM47.1843 18C46.8216 18 46.5229 17.8933 46.2883 17.68C46.0536 17.4453 45.9363 17.1467 45.9363 16.784V7.568C45.9363 6.05333 45.5416 4.85867 44.7523 3.984C43.9629 3.088 42.9496 2.64 41.7123 2.64C40.3896 2.64 39.3016 3.088 38.4483 3.984C37.6163 4.85867 37.2109 6.032 37.2323 7.504H35.0243C35.0456 6.07467 35.3549 4.816 35.9523 3.728C36.5496 2.64 37.3709 1.79733 38.4163 1.2C39.4616 0.602666 40.6456 0.303999 41.9683 0.303999C43.2269 0.303999 44.3363 0.602666 45.2963 1.2C46.2776 1.79733 47.0349 2.64 47.5683 3.728C48.1229 4.816 48.4003 6.096 48.4003 7.568V16.784C48.4003 17.1467 48.2829 17.4453 48.0483 17.68C47.8349 17.8933 47.5469 18 47.1843 18ZM24.7843 18C24.4003 18 24.0909 17.8933 23.8563 17.68C23.6429 17.4453 23.5363 17.1467 23.5363 16.784V1.744C23.5363 1.38133 23.6429 1.08267 23.8563 0.848C24.0909 0.613332 24.4003 0.495998 24.7843 0.495998C25.1469 0.495998 25.4349 0.613332 25.6483 0.848C25.8829 1.08267 26.0003 1.38133 26.0003 1.744V16.784C26.0003 17.1467 25.8829 17.4453 25.6483 17.68C25.4349 17.8933 25.1469 18 24.7843 18ZM36.0163 18C35.6536 18 35.3549 17.8933 35.1203 17.68C34.8856 17.4453 34.7683 17.1467 34.7683 16.784V7.568C34.7683 6.05333 34.3736 4.85867 33.5843 3.984C32.7949 3.088 31.7816 2.64 30.5443 2.64C29.2216 2.64 28.1336 3.07733 27.2803 3.952C26.4269 4.80533 26.0003 5.92533 26.0003 7.312H24.2403C24.2829 5.94667 24.5816 4.74133 25.1363 3.696C25.7123 2.62933 26.4909 1.79733 27.4723 1.2C28.4536 0.602666 29.5629 0.303999 30.8003 0.303999C32.0589 0.303999 33.1683 0.602666 34.1283 1.2C35.1096 1.79733 35.8669 2.64 36.4003 3.728C36.9549 4.816 37.2323 6.096 37.2323 7.568V16.784C37.2323 17.1467 37.1149 17.4453 36.8803 17.68C36.6669 17.8933 36.3789 18 36.0163 18Z" fill="white"/>
</svg>
